<svg xmlns="http://www.w3.org/2000/svg" width="27" height="26.815" viewBox="0 0 27 26.815">
  <g id="Group_17624" data-name="Group 17624" transform="translate(-758 -2396)">
    <rect id="Rectangle_15018" data-name="Rectangle 15018" width="27" height="26" rx="10" transform="translate(758 2396)" fill="#f1f3fc"/>
    <path id="checkbox" d="M15.282,6A9.282,9.282,0,0,0,6,15.282v8.251a9.282,9.282,0,0,0,9.282,9.282h8.251a9.282,9.282,0,0,0,9.282-9.282V15.282A9.282,9.282,0,0,0,23.533,6H15.282ZM8.063,15.282a7.219,7.219,0,0,1,7.219-7.219h8.251a7.219,7.219,0,0,1,7.219,7.219v8.251a7.219,7.219,0,0,1-7.219,7.219H15.282a7.219,7.219,0,0,1-7.219-7.219V15.282ZM26.338,16a1.031,1.031,0,0,0-1.485-1.431l-7.7,8-3.186-3.307a1.031,1.031,0,0,0-1.485,1.431l3.929,4.077a1.031,1.031,0,0,0,1.485,0Z" transform="translate(752 2390)" fill="#2448df" fill-rule="evenodd"/>
  </g>
</svg>
