<svg id="Group_17802" data-name="Group 17802" xmlns="http://www.w3.org/2000/svg" xmlns:xlink="http://www.w3.org/1999/xlink" width="29.516" height="29.516" viewBox="0 0 29.516 29.516">
  <defs>
    <clipPath id="clip-path">
      <rect id="Rectangle_41" data-name="Rectangle 41" width="29.516" height="29.516" fill="#2448df"/>
    </clipPath>
  </defs>
  <g id="Group_16816" data-name="Group 16816" transform="translate(0 0)" clip-path="url(#clip-path)">
    <path id="Path_142" data-name="Path 142" d="M25.089,29.516H22.137a4.41,4.41,0,0,1-2.952-1.13,4.407,4.407,0,0,1-2.951,1.13H13.282a4.413,4.413,0,0,1-2.952-1.13,4.41,4.41,0,0,1-2.951,1.13H4.427A4.432,4.432,0,0,1,0,25.089V16.234a4.432,4.432,0,0,1,4.427-4.427H7.379a4.4,4.4,0,0,1,1.476.253V10.331A4.432,4.432,0,0,1,13.282,5.9h2.952a4.419,4.419,0,0,1,1.476.252V4.428A4.433,4.433,0,0,1,22.137,0h2.952a4.433,4.433,0,0,1,4.427,4.428V25.089a4.432,4.432,0,0,1-4.427,4.427m-4.427-4.427a1.477,1.477,0,0,0,1.476,1.476h2.952a1.477,1.477,0,0,0,1.476-1.476V4.428a1.477,1.477,0,0,0-1.476-1.476H22.137a1.477,1.477,0,0,0-1.476,1.476Zm-8.855,0a1.477,1.477,0,0,0,1.476,1.476h2.952a1.477,1.477,0,0,0,1.476-1.476V10.331a1.477,1.477,0,0,0-1.476-1.476H13.282a1.477,1.477,0,0,0-1.476,1.476ZM4.427,14.758a1.477,1.477,0,0,0-1.476,1.476v8.855a1.477,1.477,0,0,0,1.476,1.476H7.379a1.477,1.477,0,0,0,1.476-1.476V16.234a1.477,1.477,0,0,0-1.476-1.476Z" transform="translate(0 0)" fill="#2448df"/>
  </g>
</svg>
