<svg id="Group_17801" data-name="Group 17801" xmlns="http://www.w3.org/2000/svg" xmlns:xlink="http://www.w3.org/1999/xlink" width="29.516" height="29.516" viewBox="0 0 29.516 29.516">
  <defs>
    <clipPath id="clip-path">
      <rect id="Rectangle_40" data-name="Rectangle 40" width="29.516" height="29.516" fill="#2448df"/>
    </clipPath>
  </defs>
  <g id="Group_16815" data-name="Group 16815" transform="translate(0 0)" clip-path="url(#clip-path)">
    <path id="Path_141" data-name="Path 141" d="M25.089,29.516H7.379A7.387,7.387,0,0,1,0,22.137V4.427A4.433,4.433,0,0,1,4.427,0h5.9a4.433,4.433,0,0,1,4.426,4.326,4.431,4.431,0,0,1,6.188.071L25.12,8.571a4.432,4.432,0,0,1,.071,6.188,4.433,4.433,0,0,1,4.325,4.427v5.9a4.432,4.432,0,0,1-4.427,4.427m-11.7-2.951h11.7a1.478,1.478,0,0,0,1.476-1.476v-5.9a1.478,1.478,0,0,0-1.476-1.476H22.242ZM4.427,2.952A1.477,1.477,0,0,0,2.952,4.427v17.71a4.427,4.427,0,1,0,8.855,0V4.427a1.478,1.478,0,0,0-1.476-1.476ZM14.758,8.5V21.018l8.275-8.273a1.477,1.477,0,0,0,0-2.087L18.857,6.484a1.478,1.478,0,0,0-2.087,0ZM7.394,23.613a1.476,1.476,0,1,1-.015-2.951h.015a1.476,1.476,0,1,1,0,2.951" transform="translate(0 0)" fill="#2448df"/>
  </g>
</svg>
