<svg xmlns="http://www.w3.org/2000/svg" xmlns:xlink="http://www.w3.org/1999/xlink" width="86" height="94" viewBox="0 0 86 94">
  <defs>
    <clipPath id="clip-path">
      <rect id="Rectangle_15033" data-name="Rectangle 15033" width="61.923" height="72.621" transform="translate(0)" fill="#fff" stroke="#fff" stroke-width="0.4"/>
    </clipPath>
  </defs>
  <g id="Group_17817" data-name="Group 17817" transform="translate(-235 -3943)">
    <g id="Group_17634" data-name="Group 17634" transform="translate(249.276 3943)">
      <g id="Group_17352" data-name="Group 17352" transform="translate(0 0)" clip-path="url(#clip-path)">
        <path id="Union_1" data-name="Union 1" d="M26.031,64.276A37.8,37.8,0,0,1,10.232,53.5a36.989,36.989,0,0,1-6.8-10.644A42.933,42.933,0,0,1,.416,30.642c-.261-2.554-.3-5.163-.332-7.686C.067,21.814.051,20.634.014,19.478L0,19.023l.143,0c0-.628,0-1.258,0-1.885,0-1.855,0-3.771.008-5.656a2.221,2.221,0,0,1,2.22-2.57A56.021,56.021,0,0,0,25.047.7a3.944,3.944,0,0,1,2.1-.7,3.935,3.935,0,0,1,2.2.77,53.034,53.034,0,0,0,17.55,7.356c1.374.314,2.774.536,4.083.728,2.122.312,2.772,1.058,2.786,3.19.014,2.527.018,5.1.02,7.58q0,1.529,0,3.062A60.727,60.727,0,0,1,52.576,36.5a38.87,38.87,0,0,1-6.769,14.8A41.074,41.074,0,0,1,33.542,61.96a29.61,29.61,0,0,1-4.464,2.193,5.209,5.209,0,0,1-1.781.314A3.949,3.949,0,0,1,26.031,64.276Zm.644-59.961c-.836.508-1.7.982-2.544,1.441l-.679.373a57.426,57.426,0,0,1-18.9,6.449c-.436.067-.5.2-.5.671.008,1.608.008,3.243.006,4.825,0,.609,0,1.221,0,1.83v.434l-.145.006c.043.887.082,1.777.12,2.646.1,2.228.2,4.531.375,6.785a34.362,34.362,0,0,0,6.788,18.7,35.684,35.684,0,0,0,15.4,11.836,2.062,2.062,0,0,0,.73.122,2.262,2.262,0,0,0,.86-.163,37.621,37.621,0,0,0,12.262-8.7,35.443,35.443,0,0,0,7.495-13.017c1.69-5.141,1.879-10.53,1.928-15.611.018-1.955-.018-3.948-.055-5.874-.026-1.323-.051-2.691-.059-4.038,0-.3-.014-.349-.5-.453q-.777-.165-1.557-.326c-1.722-.357-3.5-.726-5.23-1.19a56.061,56.061,0,0,1-14.888-6.7,1,1,0,0,0-.5-.19A.787.787,0,0,0,26.675,4.315Z" transform="translate(4.062 4.076)" fill="#fff"/>
        <path id="Path_14303" data-name="Path 14303" d="M61.091,106.707c-8.833.237-17.163-7.06-17.8-16.838-.5-7.677,2.737-13.467,9.083-17.548A15.85,15.85,0,0,1,63.99,70.315a3.034,3.034,0,0,1,2.795,2.8c.059.3.137.6.168.9.282,2.743.271,2.78,2.954,3.4a3.085,3.085,0,0,1,2.6,2.676c.281,1.994,1.116,3.141,3.294,2.97a5.509,5.509,0,0,1,1.5.252,2.52,2.52,0,0,1,1.961,2.07,17.661,17.661,0,0,1-4.294,14.613,18.156,18.156,0,0,1-11.131,6.524,26.354,26.354,0,0,1-2.749.191m.714-2.437c4.979-.144,9.4-2.96,12.593-7.827a14.743,14.743,0,0,0,2.35-8.933,1.556,1.556,0,0,0-1.564-1.654,5.291,5.291,0,0,0-.914-.1c-2.532.125-3.765-.985-4.293-3.657-.362-1.832-.441-1.885-2.288-2.095a3.559,3.559,0,0,1-3.3-3.216c-.112-.809-.255-1.615-.344-2.427a1.559,1.559,0,0,0-1.483-1.536A13.331,13.331,0,0,0,54.07,74.4,15.749,15.749,0,0,0,45.9,90.864c1.053,7.557,7.523,13.359,15.906,13.407" transform="translate(-29.856 -51.145)" fill="#fff" stroke="#fff" stroke-width="0.4"/>
        <path id="Path_14304" data-name="Path 14304" d="M137.747,151.125a1.859,1.859,0,0,1,2.049,2.1,2.124,2.124,0,1,1-2.049-2.1" transform="translate(-103.275 -115.656)" fill="#fff" stroke="#fff" stroke-width="0.4"/>
        <path id="Path_14305" data-name="Path 14305" d="M82.5,155.154a2.034,2.034,0,1,1-.025-4.068,2.071,2.071,0,0,1,2.181,1.946,2.143,2.143,0,0,1-2.156,2.122" transform="translate(-59.449 -115.626)" fill="#fff" stroke="#fff" stroke-width="0.4"/>
        <path id="Path_14306" data-name="Path 14306" d="M112.684,110.39a1.872,1.872,0,0,1-2.02,2.035,2.079,2.079,0,0,1-2.043-2.1,1.971,1.971,0,0,1,2.075-1.924,1.909,1.909,0,0,1,1.989,1.985" transform="translate(-81.854 -81.684)" fill="#fff" stroke="#fff" stroke-width="0.4"/>
        <path id="Path_14307" data-name="Path 14307" d="M111.338,201.741a1.684,1.684,0,0,1-1.642-1.8,1.723,1.723,0,0,1,1.78-1.574,1.545,1.545,0,0,1,1.594,1.8,1.621,1.621,0,0,1-1.732,1.581" transform="translate(-82.705 -153.223)" fill="#fff" stroke="#fff" stroke-width="0.4"/>
        <path id="Path_14308" data-name="Path 14308" d="M162.332,190.729c-.017.8-.891,1.765-1.566,1.736a1.607,1.607,0,0,1-1.455-1.667,1.511,1.511,0,0,1,3.021-.068" transform="translate(-122.168 -145.997)" fill="#fff" stroke="#fff" stroke-width="0.4"/>
      </g>
    </g>
    <text id="TRUSTCOOKIE" transform="translate(235 4034)" fill="#fff" font-size="13" font-family="Roboto-Medium, Roboto" font-weight="500"><tspan x="0" y="0">TRUSTCOOKIE</tspan></text>
  </g>
</svg>
