<svg xmlns="http://www.w3.org/2000/svg" width="19.497" height="25.992" viewBox="0 0 19.497 25.992">
  <g id="hourglass" transform="translate(-2)">
    <path id="Path_15562" data-name="Path 15562" d="M6.885,5.6a6.586,6.586,0,0,1,2.989,5.514h0a6.573,6.573,0,0,1,2.965-5.5,4.641,4.641,0,0,0,1.9-2.581L5,3a4.642,4.642,0,0,0,1.868,2.59Z" transform="translate(1.874 1.874)" fill="#bbb"/>
    <path id="Path_15563" data-name="Path 15563" d="M16.914,9.845A7.147,7.147,0,0,0,19.87,4.061V3.249H21.5V0H2V3.249H3.625v.812A7.134,7.134,0,0,0,6.562,9.83,4.165,4.165,0,0,1,8.5,12.98a4.476,4.476,0,0,1-1.964,3.254,7.215,7.215,0,0,0-2.908,5.691v.817H2v3.249H21.5V22.743H19.872V21.93A7.205,7.205,0,0,0,17,16.257a4.487,4.487,0,0,1-2-3.243,4.144,4.144,0,0,1,1.9-3.161ZM13.372,13a6,6,0,0,0,2.468,4.489,5.649,5.649,0,0,1,2.406,4.438v.82h-13v-.812a5.641,5.641,0,0,1,2.37-4.424,6.008,6.008,0,0,0,2.5-4.494A5.657,5.657,0,0,0,7.688,8.656a5.585,5.585,0,0,1-2.44-4.593V3.251h13v.812a5.566,5.566,0,0,1-2.4,4.57,5.665,5.665,0,0,0-2.471,4.351Z" fill="#bbb"/>
  </g>
</svg>
