<svg xmlns="http://www.w3.org/2000/svg" xmlns:xlink="http://www.w3.org/1999/xlink" width="30" height="29.516" viewBox="0 0 30 29.516">
  <defs>
    <clipPath id="clip-path">
      <rect id="Rectangle_15400" data-name="Rectangle 15400" width="30" height="29.516" fill="#2448df"/>
    </clipPath>
  </defs>
  <g id="Group_17621" data-name="Group 17621" clip-path="url(#clip-path)">
    <path id="Path_15566" data-name="Path 15566" d="M15,29.516a1.5,1.5,0,0,1-.373-.047A19.526,19.526,0,0,1,.62,5.685,1.509,1.509,0,0,1,2.152,4.562,16.352,16.352,0,0,0,14,.383a1.5,1.5,0,0,1,2,0A16.352,16.352,0,0,0,27.847,4.562a1.5,1.5,0,0,1,1.532,1.123A19.524,19.524,0,0,1,15.374,29.469a1.5,1.5,0,0,1-.374.047M3.271,7.584A16.528,16.528,0,0,0,15,26.462,16.489,16.489,0,0,0,27,10.583a16.652,16.652,0,0,0-.272-3A19.266,19.266,0,0,1,15,3.457,19.267,19.267,0,0,1,3.271,7.584m10.228,12a1.5,1.5,0,0,1-1.061-.439l-3-3a1.5,1.5,0,1,1,2.121-2.121L13.5,15.962l4.94-4.939a1.5,1.5,0,1,1,2.121,2.121l-6,6a1.5,1.5,0,0,1-1.061.439" transform="translate(0 0)" fill="#2448df"/>
  </g>
</svg>
