<svg xmlns="http://www.w3.org/2000/svg" xmlns:xlink="http://www.w3.org/1999/xlink" width="45" height="45" viewBox="0 0 45 45">
  <defs>
    <clipPath id="clip-path">
      <rect id="Rectangle_15034" data-name="Rectangle 15034" width="18" height="20.001" transform="translate(0 0)" fill="#4c3aed"/>
    </clipPath>
  </defs>
  <g id="Group_17813" data-name="Group 17813" transform="translate(-748 -2375)">
    <rect id="Rectangle_15422" data-name="Rectangle 15422" width="45" height="45" rx="10" transform="translate(748 2375)" fill="#e1e7fd"/>
    <g id="Group_17631" data-name="Group 17631" transform="translate(761 2388)">
      <g id="Group_17356" data-name="Group 17356" clip-path="url(#clip-path)">
        <path id="Path_14309" data-name="Path 14309" d="M8,20a.97.97,0,0,1-.335-.059A1,1,0,0,1,7,19V13H1a1,1,0,0,1-.774-1.633l9-11A1,1,0,0,1,11,1V7h6a1,1,0,0,1,.774,1.633l-9,11A1,1,0,0,1,8,20M3.111,11H8a1,1,0,0,1,1,1v4.2L14.89,9H10A1,1,0,0,1,9,8V3.8Z" fill="#4c3aed"/>
      </g>
    </g>
  </g>
</svg>
