<svg xmlns="http://www.w3.org/2000/svg" width="34" height="34" viewBox="0 0 34 34">
  <g id="Group_17819" data-name="Group 17819" transform="translate(-1671 -3457)">
    <circle id="Ellipse_6" data-name="Ellipse 6" cx="17" cy="17" r="17" transform="translate(1671 3457)" fill="#fff" opacity="0.268"/>
    <path id="linkedin" d="M0,6.883A1.763,1.763,0,0,1,.573,5.532,2.1,2.1,0,0,1,2.063,5a2.039,2.039,0,0,1,1.457.524,1.846,1.846,0,0,1,.573,1.408,1.724,1.724,0,0,1-.557,1.31,2.106,2.106,0,0,1-1.506.54H2.014a2,2,0,0,1-1.457-.54A1.814,1.814,0,0,1,0,6.883ZM.213,21.207V10.271H3.847V21.207Zm5.648,0H9.495V15.1a2.131,2.131,0,0,1,.827-1.825,1.779,1.779,0,0,1,1.17-.385q1.833,0,1.833,2.472v5.844H16.96v-6.27a5.269,5.269,0,0,0-1.146-3.675,3.909,3.909,0,0,0-3.029-1.252,3.715,3.715,0,0,0-3.29,1.817v.033H9.478l.016-.033V10.271H5.861q.033.524.033,3.258T5.861,21.207Z" transform="translate(1680 3461)" fill="#d3d3d3"/>
  </g>
</svg>
