<svg xmlns="http://www.w3.org/2000/svg" xmlns:xlink="http://www.w3.org/1999/xlink" width="175.538" height="32.065" viewBox="0 0 175.538 32.065">
  <defs>
    <clipPath id="clip-path">
      <rect id="Rectangle_15033" data-name="Rectangle 15033" width="27.342" height="32.065" transform="translate(-2 -2)" fill="#2b58ee" stroke="#2b58ee" stroke-width="0.4"/>
    </clipPath>
  </defs>
  <g id="Group_17355" data-name="Group 17355" transform="translate(-202.745 -35.967)">
    <g id="Group_17353" data-name="Group 17353" transform="translate(205 38.274)">
      <g id="Group_17352" data-name="Group 17352" transform="translate(-0.255 -0.306)" clip-path="url(#clip-path)">
        <path id="Union_1" data-name="Union 1" d="M-193.252-9.587a16.69,16.69,0,0,1-6.976-4.758,16.332,16.332,0,0,1-3-4.7,18.957,18.957,0,0,1-1.333-5.393c-.115-1.128-.131-2.28-.147-3.394-.007-.5-.014-1.025-.031-1.535l-.006-.2.063,0c0-.277,0-.555,0-.833,0-.819,0-1.665,0-2.5a.981.981,0,0,1,.98-1.135,24.736,24.736,0,0,0,10.013-3.626,1.742,1.742,0,0,1,.926-.307,1.738,1.738,0,0,1,.97.34,23.417,23.417,0,0,0,7.749,3.248c.607.139,1.225.237,1.8.321.937.138,1.224.467,1.23,1.409C-181-31.533-181-30.4-181-29.3q0,.675,0,1.352a26.814,26.814,0,0,1-.534,6.1,17.163,17.163,0,0,1-2.989,6.533,18.136,18.136,0,0,1-5.415,4.71,13.075,13.075,0,0,1-1.971.968,2.3,2.3,0,0,1-.787.139A1.744,1.744,0,0,1-193.252-9.587Zm.284-26.475c-.369.224-.752.434-1.123.636l-.3.165a25.356,25.356,0,0,1-8.346,2.848c-.193.03-.22.09-.219.3,0,.71,0,1.432,0,2.13,0,.269,0,.539,0,.808v.192l-.064,0c.019.392.036.785.053,1.168.043.984.087,2,.166,3a15.172,15.172,0,0,0,3,8.256,15.756,15.756,0,0,0,6.8,5.226.911.911,0,0,0,.322.054,1,1,0,0,0,.38-.072,16.612,16.612,0,0,0,5.414-3.843,15.65,15.65,0,0,0,3.309-5.747,22.594,22.594,0,0,0,.851-6.893c.008-.863-.008-1.743-.024-2.594-.012-.584-.022-1.188-.026-1.783,0-.131-.006-.154-.219-.2l-.688-.144c-.76-.158-1.546-.32-2.309-.526a24.753,24.753,0,0,1-6.574-2.957.443.443,0,0,0-.22-.084A.347.347,0,0,0-192.967-36.062Z" transform="translate(204.539 37.767)" fill="#2b58ee"/>
        <path id="Path_14303" data-name="Path 14303" d="M51.12,86.212a7.912,7.912,0,0,1-7.861-7.435,8.069,8.069,0,0,1,4.011-7.748,7,7,0,0,1,5.13-.886,1.34,1.34,0,0,1,1.234,1.235c.026.132.06.264.074.4.124,1.211.119,1.227,1.3,1.5a1.362,1.362,0,0,1,1.148,1.181c.124.881.493,1.387,1.454,1.311a2.432,2.432,0,0,1,.664.111,1.113,1.113,0,0,1,.866.914,7.8,7.8,0,0,1-1.9,6.452,8.016,8.016,0,0,1-4.915,2.881,11.636,11.636,0,0,1-1.214.084m.315-1.076A6.925,6.925,0,0,0,57,81.68a6.51,6.51,0,0,0,1.038-3.944.687.687,0,0,0-.691-.73,2.335,2.335,0,0,0-.4-.042c-1.118.055-1.662-.435-1.9-1.615-.16-.809-.195-.832-1.01-.925A1.571,1.571,0,0,1,52.574,73c-.05-.357-.112-.713-.152-1.071a.688.688,0,0,0-.655-.678,5.886,5.886,0,0,0-3.747.692,7.013,7.013,0,0,0,3.415,13.191" transform="translate(-39.328 -63.678)" fill="#2b58ee" stroke="#2b58ee" stroke-width="0.4"/>
        <path id="Path_14304" data-name="Path 14304" d="M136.523,151.124a.821.821,0,0,1,.9.926.938.938,0,1,1-.9-.926" transform="translate(-123.302 -137.463)" fill="#2b58ee" stroke="#2b58ee" stroke-width="0.4"/>
        <path id="Path_14305" data-name="Path 14305" d="M81.353,152.882a.9.9,0,1,1-.011-1.8.914.914,0,0,1,.963.859.946.946,0,0,1-.952.937" transform="translate(-73.175 -137.429)" fill="#2b58ee" stroke="#2b58ee" stroke-width="0.4"/>
        <path id="Path_14306" data-name="Path 14306" d="M110.414,109.282a.827.827,0,0,1-.892.9.918.918,0,0,1-.9-.925.87.87,0,0,1,.916-.85.843.843,0,0,1,.878.876" transform="translate(-98.801 -98.607)" fill="#2b58ee" stroke="#2b58ee" stroke-width="0.4"/>
        <path id="Path_14307" data-name="Path 14307" d="M110.418,199.853a.744.744,0,0,1-.725-.8.761.761,0,0,1,.786-.7.682.682,0,0,1,.7.794.716.716,0,0,1-.765.7" transform="translate(-99.775 -180.43)" fill="#2b58ee" stroke="#2b58ee" stroke-width="0.4"/>
        <path id="Path_14308" data-name="Path 14308" d="M160.645,189.916c-.007.352-.393.779-.692.766a.71.71,0,0,1-.642-.736.667.667,0,0,1,1.334-.03" transform="translate(-144.911 -172.165)" fill="#2b58ee" stroke="#2b58ee" stroke-width="0.4"/>
      </g>
    </g>
    <text id="TRUSTCOOKIE" transform="translate(232.283 59.727)" fill="#2b58ee" font-size="22" font-family="Roboto-Medium, Roboto" font-weight="500"><tspan x="0" y="0">TRUSTCOOKIE</tspan></text>
  </g>
</svg>
