<svg xmlns="http://www.w3.org/2000/svg" width="18.343" height="10.7" viewBox="0 0 18.343 10.7">
  <g id="preview" transform="translate(0 -5)">
    <path id="Path_14300" data-name="Path 14300" d="M9.172,15.7c-4.948,0-8.836-4.662-9-4.866a.764.764,0,0,1,0-.969C.336,9.666,4.224,5,9.172,5s8.836,4.666,9,4.866a.764.764,0,0,1,0,.969C18.008,11.038,14.12,15.7,9.172,15.7ZM1.8,10.35c1.082,1.125,4.022,3.822,7.376,3.822s6.3-2.694,7.376-3.822c-1.082-1.125-4.022-3.822-7.376-3.822S2.875,9.223,1.8,10.35Z" transform="translate(0)"/>
    <path id="Path_14301" data-name="Path 14301" d="M11.057,14.115a3.057,3.057,0,1,1,3.057-3.057A3.057,3.057,0,0,1,11.057,14.115Zm0-4.586a1.529,1.529,0,1,0,1.529,1.529A1.529,1.529,0,0,0,11.057,9.529Z" transform="translate(-1.885 -0.707)"/>
  </g>
</svg>
