<svg xmlns="http://www.w3.org/2000/svg" width="27.348" height="27.346" viewBox="0 0 27.348 27.346">
  <g id="Group_17804" data-name="Group 17804" transform="translate(33.674 1938.824) rotate(180)">
    <g id="Group_16810" data-name="Group 16810" transform="translate(6.326 1911.478)">
      <path id="Arrow_-_Right_Circle-2" data-name="Arrow - Right Circle-2" d="M866.466-242.082h.383a13.674,13.674,0,0,0,13.481-13.864,13.674,13.674,0,0,0-13.864-13.481,13.674,13.674,0,0,0-13.481,13.863A13.674,13.674,0,0,0,866.466-242.082Z" transform="translate(-852.983 269.428)" fill="#f1f3fc"/>
    </g>
    <g id="noun_Next_1135493_1_" data-name="noun_Next_1135493 (1)" transform="translate(10.961 1917.08)">
      <path id="Path_139" data-name="Path 139" d="M.334,7.506l5.6,5.6a1.007,1.007,0,1,0,1.423-1.423L2.375,6.7,7.357,1.718A1.007,1.007,0,1,0,5.934.295L.334,5.9A1.139,1.139,0,0,0,.334,7.506Z" transform="translate(4.213 1.685)"/>
    </g>
  </g>
</svg>
