<svg xmlns="http://www.w3.org/2000/svg" width="34.41" height="27.341" viewBox="0 0 34.41 27.341">
  <g id="Scan_Fill" transform="translate(-8 -8)" opacity="0.405">
    <path id="scan-2852155" d="M12.617,3a1.164,1.164,0,0,1,1.19,1.135,1.162,1.162,0,0,1-1.19,1.133l-2.548,0A3.757,3.757,0,0,0,6.234,8.928v2.824a1.166,1.166,0,0,1-1.192,1.135,1.165,1.165,0,0,1-1.19-1.135V8.928A6.087,6.087,0,0,1,10.068,3h2.549ZM23.836,3h2.492a6.092,6.092,0,0,1,6.23,5.933v2.82a1.192,1.192,0,0,1-2.381,0V8.933a3.765,3.765,0,0,0-3.849-3.666H23.836a1.162,1.162,0,0,1-1.19-1.132A1.164,1.164,0,0,1,23.836,3ZM22.526,8.685h-8.64a3.5,3.5,0,0,0-3.549,3.442v1.892a.428.428,0,0,0,.422.408h14.89a.432.432,0,0,0,.427-.408V12.127a3.393,3.393,0,0,0-1.034-2.435A3.608,3.608,0,0,0,22.526,8.685ZM2.192,16.733H34.219a1.135,1.135,0,1,1,0,2.267H32.558v5.407a6.093,6.093,0,0,1-6.23,5.934H23.837a1.136,1.136,0,1,1,0-2.269h2.492a3.764,3.764,0,0,0,3.849-3.666V19h-4.1v1.506a3.5,3.5,0,0,1-3.55,3.442h-8.64a3.5,3.5,0,0,1-3.549-3.442V19h-4.1v5.413a3.759,3.759,0,0,0,3.838,3.658h2.546a1.136,1.136,0,1,1,0,2.269l-2.548,0a6.089,6.089,0,0,1-6.217-5.927V19H2.192a1.135,1.135,0,1,1,0-2.267Z" transform="translate(7 5)" fill="#585858" fill-rule="evenodd"/>
  </g>
</svg>
