<svg xmlns="http://www.w3.org/2000/svg" width="24.234" height="19.828" viewBox="0 0 24.234 19.828">
  <g id="Scan_Fill" transform="translate(-3.497 -3.497)">
    <path id="scan-2852155" d="M9.182,3a.823.823,0,1,1,0,1.645H7.388A2.683,2.683,0,0,0,4.687,7.3V9.347a.839.839,0,0,1-1.678,0V7.3A4.346,4.346,0,0,1,7.386,3h1.8Zm7.9,0h1.755a4.349,4.349,0,0,1,4.387,4.3V9.347a.838.838,0,0,1-1.677,0V7.3a2.688,2.688,0,0,0-2.711-2.658H17.083a.822.822,0,1,1,0-1.644ZM16.16,7.123H10.075a2.5,2.5,0,0,0-2.5,2.5v1.372a.306.306,0,0,0,.3.3H18.36a.308.308,0,0,0,.3-.3V9.619a2.49,2.49,0,0,0-2.5-2.5ZM1.839,12.959H24.4a.822.822,0,1,1,0,1.644h-1.17v3.921a4.35,4.35,0,0,1-4.387,4.3H17.084a.823.823,0,1,1,0-1.645h1.755a2.687,2.687,0,0,0,2.711-2.658V14.6H18.66V15.7a2.5,2.5,0,0,1-2.5,2.5H10.075a2.5,2.5,0,0,1-2.5-2.5V14.6H4.686v3.925a2.684,2.684,0,0,0,2.7,2.653H9.182a.823.823,0,1,1,0,1.645H7.387a4.347,4.347,0,0,1-4.379-4.3V14.6H1.839a.822.822,0,1,1,0-1.644Z" transform="translate(2.497 0.497)" fill="#fff" fill-rule="evenodd"/>
  </g>
</svg>
