<svg id="Star_Fill" xmlns="http://www.w3.org/2000/svg" width="9.718" height="9.325" viewBox="0 0 9.718 9.325">
  <path id="star-2852162" d="M6.55,5.812a.3.3,0,0,0-.091.272l.254,1.379a.3.3,0,0,1-.129.3.32.32,0,0,1-.334.022L4.984,7.141A.328.328,0,0,0,4.841,7.1H4.764a.235.235,0,0,0-.077.025L3.42,7.78a.34.34,0,0,1-.2.031.312.312,0,0,1-.254-.356l.254-1.379A.31.31,0,0,0,3.126,5.8L2.094,4.82A.3.3,0,0,1,2.017,4.5a.319.319,0,0,1,.254-.21l1.421-.2a.318.318,0,0,0,.252-.171l.626-1.258a.292.292,0,0,1,.057-.076l.026-.02A.191.191,0,0,1,4.7,2.531l.031-.011.049-.02H4.9a.32.32,0,0,1,.252.168l.634,1.253a.317.317,0,0,0,.237.171l1.421.2a.323.323,0,0,1,.26.21.3.3,0,0,1-.083.317Z" transform="translate(0 -0.5)" fill="#2448df"/>
</svg>
